<?xml version="1.0" encoding="utf-8"?>
<!-- Generator: Adobe Illustrator 23.0.3, SVG Export Plug-In . SVG Version: 6.00 Build 0)  -->
<svg version="1.1" id="Layer_1" xmlns="http://www.w3.org/2000/svg" xmlns:xlink="http://www.w3.org/1999/xlink" x="0px" y="0px"
	 viewBox="0 0 9.3 9.3" style="enable-background:new 0 0 9.3 9.3;" xml:space="preserve">
<style type="text/css">
	.st0{fill:#6C727E;}
</style>
<path class="st0" d="M8.1,0H3C2.4,0,1.9,0.5,1.9,1.2v1.3H1.2C0.5,2.4,0,3,0,3.6v4.5c0,0.6,0.5,1.2,1.2,1.2h4.5
	c0.6,0,1.2-0.5,1.2-1.2V7.5h1.3c0.6,0,1.2-0.5,1.2-1.2V1.2C9.3,0.5,8.8,0,8.1,0z M5.7,8.1l-4.5,0l0-4.5l4.5,0V8.1z M8.1,6.2l-1.2,0
	V3.6c0-0.6-0.5-1.2-1.2-1.2H3.1l0-1.2l5.1,0V6.2z"/>
</svg>
