<?xml version="1.0" encoding="utf-8"?>
<!-- Generator: Adobe Illustrator 23.0.3, SVG Export Plug-In . SVG Version: 6.00 Build 0)  -->
<svg version="1.1" id="Layer_1" xmlns="http://www.w3.org/2000/svg" xmlns:xlink="http://www.w3.org/1999/xlink" x="0px" y="0px"
	 viewBox="0 0 12.4 10.7" style="enable-background:new 0 0 12.4 10.7;" xml:space="preserve">
<style type="text/css">
	.st0{fill:#E85142;}
</style>
<path class="st0" d="M6.2,7.6c-0.3,0-0.6,0.3-0.6,0.6c0,0.3,0.3,0.6,0.6,0.6s0.6-0.3,0.6-0.6C6.8,7.9,6.6,7.6,6.2,7.6z M5.6,4.2
	l0.2,2.6C5.8,7,6,7.2,6.2,7.2c0.2,0,0.4-0.2,0.4-0.4l0.2-2.7c0-0.3-0.3-0.6-0.6-0.6S5.6,3.8,5.6,4.2z M12.4,9.9L6.7,0.3
	c-0.2-0.3-0.8-0.3-0.9,0L0.1,9.9c-0.1,0.2-0.1,0.4,0,0.6c0.1,0.2,0.3,0.3,0.5,0.3h11.3c0.2,0,0.4-0.1,0.5-0.3
	C12.5,10.3,12.5,10.1,12.4,9.9z M1.5,9.6l4.7-8l4.7,8H1.5z"/>
</svg>
