<?xml version="1.0" encoding="utf-8"?>
<!-- Generator: Adobe Illustrator 23.0.3, SVG Export Plug-In . SVG Version: 6.00 Build 0)  -->
<svg version="1.1" id="Layer_1" xmlns="http://www.w3.org/2000/svg" xmlns:xlink="http://www.w3.org/1999/xlink" x="0px" y="0px"
	 viewBox="0 0 201.7 22.8" style="enable-background:new 0 0 201.7 22.8;" xml:space="preserve">
<style type="text/css">
	.st0{fill:#FFFFFF;}
</style>
<g>
	<g>
		<path class="st0" d="M66.7,18.1c-1,3.9,0.4,4.6,5,4.6h4.1l1-3.9h-1.6c-1.2,0-1.6-0.4-1.4-1.4L76,9h3.1l1-3.9h-3.1L78.4,0h-7
			l-1.4,5.1H67L66,9h3.1L66.7,18.1z"/>
		<path class="st0" d="M95.4,22.7l3.4-12.8c1-3.8-2.3-4.7-4.5-4.7H82l-1,3.9l9.3,0c1.3,0,1.6,0.6,1.2,2.1l-2,7.7l-2.3,0
			c-1.3,0-1.6-0.6-1.2-2.1l1.6-6l-7.8,3.1L78.6,18c-1,3.8,1.3,4.7,4.4,4.7H95.4z"/>
		<path class="st0" d="M60,5.1H47.6l-1,3.9h6.5l-7.3,2.9L43,22.7h7L53.6,9h2.3c1.3,0,1.6,0.6,1.2,2.1L54,22.7h7l3.4-12.8
			C65.4,6.1,63.1,5.1,60,5.1z"/>
		<path class="st0" d="M25.9,9h6.6l-7.4,2.9l-1.6,6c-1,3.8,1.4,4.8,4.6,4.8h12.5l1-3.9l-9.5,0c-1.1,0-1.5-0.6-1.2-2.1l0.2-0.8l11,0
			l1.6-6c1-3.8-1.2-4.7-4.4-4.7h-9.1C28.6,5.1,26.7,5.8,25.9,9z M35.2,9c1.3,0,1.6,0.6,1.2,2.1l-0.2,0.8h-4L33,9H35.2z"/>
		<path class="st0" d="M2.7,0l-1,3.9h10.2L4.2,6.8L0,22.7h7.5l2-7.7h0.2l6,0c3.5,0,6.6-1.1,7.8-5.3l1.2-4.5C25.8,1.1,22.8,0,19.7,0
			H2.7z M16.1,8.4c-0.4,1.6-1.2,2.3-2.6,2.3h-2.8l1.8-6.8h2.8c1.4,0,1.8,0.7,1.4,2.3L16.1,8.4z"/>
	</g>
	<g>
		<path class="st0" d="M104.2,10c1.4-4.6,3.1-5.1,7.3-5.1c3.4,0,5.8,0.2,4.2,4.9h-1.8c0.8-3,0.6-3.2-3-3.2c-3.5,0-4.2,0.7-4.8,2.9
			c-1,3.3,0.5,3,3.4,3.1c3.7,0.2,5.5,0.3,4.1,5c-1.5,4.9-3.6,5.1-7.6,5.1c-4,0-5.9-0.5-4.1-5.6h1.8c-1.2,3.8-0.5,3.8,2.8,3.8
			c3.3,0,4.3,0,5.3-3.4c1-3.3-0.5-2.9-3.3-3.2C105.6,14.2,102.8,14.6,104.2,10z"/>
		<path class="st0" d="M118.3,12.8h8.1l-0.4,1.6h-8.1l-1.7,6.5h8.3l-0.5,1.7h-10.1l4.6-17.5h10.1l-0.5,1.7h-8.3L118.3,12.8z"/>
		<path class="st0" d="M156.8,5.1l-3.3,12.7c-1.3,4.9-3.8,5-7.5,5c-3.4,0-6.2-0.1-4.9-5l3.3-12.7h1.8l-3.3,12.7
			c-0.7,2.8-0.3,3.3,3.6,3.3c3.2,0,4.5-0.4,5.3-3.3L155,5.1H156.8z"/>
		<path class="st0" d="M170.1,22.7h-1.8L173,5.1h1.8L170.1,22.7z"/>
		<path class="st0" d="M178.6,22.7h-1.8L181,6.9h-5.1l0.5-1.7h12l-0.5,1.7h-5.1L178.6,22.7z"/>
		<path class="st0" d="M193.3,15.3l-1.9,7.4h-1.8l2-7.4l-3.3-10.1h2.1l2.7,8.1l6.6-8.1h2.1L193.3,15.3z"/>
		<path class="st0" d="M137.2,18.2c-0.6,2.5-1.6,2.9-4.4,2.9h-1.9c-3,0-2.6-2-1.7-5.9l1.3-4.8c0.8-3.2,2.2-3.7,5.9-3.7h1
			c2.2,0,2.5,0.9,2,3.2h1.8c0.8-3.2-0.3-4.3-1.8-4.7C138.6,5,136.6,5,136.6,5c-3.8,0-6.7,0.6-7.9,5.5l-1.8,6.9
			c-0.8,3.5,0.4,5.5,3.2,5.5h2.3c3.1,0,5.5-0.4,6.5-4.4l0.4-1.3h-1.8L137.2,18.2z"/>
		<path class="st0" d="M166.1,5.1L166.1,5.1l-7.3,0l-4.6,17.6h1.8l1.9-7.1h5.7c2.2,0,2.4,1.1,1.8,3.3l-1,3.8h1.8l1.3-4.8
			c0.5-1.9,0-3-1.7-3.1l0,0c2.5-0.3,3.3-2.1,3.9-4.5l0,0l0-0.1c0,0,0,0,0,0c0,0,0,0,0,0l0-0.2C170.6,6.2,169.4,5.1,166.1,5.1z
			 M163.8,13.8h-5.5l1.8-7h5.5c1.5,0,2.2,0.2,2.5,0.8c0.2,0.5,0.1,1.2-0.2,2.2C167.2,12.8,166.6,13.7,163.8,13.8z"/>
	</g>
</g>
</svg>
