<?xml version="1.0" encoding="utf-8"?>
<!-- Generator: Adobe Illustrator 23.0.3, SVG Export Plug-In . SVG Version: 6.00 Build 0)  -->
<svg version="1.1" id="Layer_1" xmlns="http://www.w3.org/2000/svg" xmlns:xlink="http://www.w3.org/1999/xlink" x="0px" y="0px"
	 viewBox="0 0 94.6 79.3" style="enable-background:new 0 0 94.6 79.3;" xml:space="preserve">
<style type="text/css">
	.st0{fill:url(#SVGID_1_);}
</style>
<linearGradient id="SVGID_1_" gradientUnits="userSpaceOnUse" x1="47.2991" y1="1.818989e-12" x2="47.2991" y2="79.2539">
	<stop  offset="0" style="stop-color:#5AAAF7"/>
	<stop  offset="1" style="stop-color:#005093"/>
</linearGradient>
<path class="st0" d="M10.3,29.8c-0.6,0.6-0.6,1.5,0,2c0.6,0.6,1.5,0.6,2,0c0.6-0.6,0.6-1.5,0-2C11.8,29.2,10.9,29.2,10.3,29.8z
	 M94,28.1L66.5,0.6c-0.8-0.8-2.2-0.8-3,0l-8.1,8.1c-0.8,0.8-0.8,2.2,0,3l1.3,1.3L52.7,17c-0.3,0.3-1.6,0.8-2.7,1.1
	c-1.7,0.6-4,1.4-6.4,2.8L38,15.3l1.3-1.3c0.8-0.8,0.8-2.2,0-3l-8.1-8.1c-0.8-0.8-2.2-0.8-3,0L0.6,30.4c-0.8,0.8-0.8,2.2,0,3l8.1,8.1
	c0.4,0.4,0.9,0.6,1.5,0.6s1.1-0.2,1.5-0.6l1.3-1.3l8.2,8.2l-1.5,1.5c-2.2,2.2-2.2,5.8,0,8l0.5,0.5c0.9,0.9,2.1,1.5,3.4,1.6
	c0.1,1.2,0.6,2.4,1.6,3.4l0.5,0.5c0.9,0.9,2.1,1.5,3.4,1.6c0.1,1.2,0.6,2.4,1.6,3.4l0.5,0.5c0.9,0.9,2.1,1.4,3.4,1.6
	c0.1,1.2,0.6,2.4,1.6,3.4l0.5,0.5c1.1,1.1,2.5,1.6,4,1.6c1.4,0,2.9-0.5,4-1.6l0,0l1.5-1.5l4.3,4.3c1.1,1.1,2.5,1.6,4,1.6
	s2.9-0.5,4-1.6l0.5-0.5c0.9-0.9,1.4-2.1,1.6-3.4c1.2-0.1,2.4-0.6,3.4-1.6l0.5-0.5c0.9-0.9,1.4-2.1,1.6-3.4c1.2-0.1,2.4-0.6,3.4-1.6
	l0.5-0.5c0.9-0.9,1.5-2.1,1.6-3.4c1.2-0.1,2.4-0.6,3.4-1.6l0.5-0.5c2.2-2.2,2.2-5.8,0-8l-4.3-4.3L81.5,38l1.3,1.3
	c0.4,0.4,1,0.6,1.5,0.6s1.1-0.2,1.5-0.6l8.1-8.1c0.4-0.4,0.6-0.9,0.6-1.5S94.4,28.5,94,28.1z M10.3,37l-5.1-5.1L29.6,7.4l5.1,5.1
	L10.3,37z M25.2,55.4c-0.5,0.5-1.4,0.5-2,0l-0.5-0.5c-0.3-0.3-0.4-0.6-0.4-1c0-0.4,0.1-0.7,0.4-1l6-6c0.3-0.3,0.6-0.4,1-0.4
	c0.4,0,0.7,0.1,1,0.4l0.5,0.5c0.3,0.3,0.4,0.6,0.4,1c0,0.4-0.1,0.7-0.4,1L25.2,55.4z M30.7,60.9c-0.5,0.5-1.4,0.5-2,0l-0.5-0.5
	c-0.5-0.5-0.5-1.4,0-2c0,0,0,0,0,0l0,0l6-6c0.3-0.3,0.6-0.4,1-0.4c0.4,0,0.7,0.1,1,0.4l0.5,0.5c0.3,0.3,0.4,0.6,0.4,1
	s-0.1,0.7-0.4,1L30.7,60.9z M36.2,66.4c-0.5,0.5-1.4,0.5-2,0l-0.5-0.5c-0.3-0.3-0.4-0.6-0.4-1s0.1-0.7,0.4-1l6-6
	c0.3-0.3,0.6-0.4,1-0.4s0.7,0.1,1,0.4l0.5,0.5c0.3,0.3,0.4,0.6,0.4,1s-0.1,0.7-0.4,1L36.2,66.4z M47.7,65.8l-6,6
	c-0.5,0.5-1.4,0.5-2,0l-0.5-0.5c-0.5-0.5-0.5-1.4,0-2l6-6c0.3-0.3,0.6-0.4,1-0.4c0.4,0,0.7,0.1,1,0.4l0.5,0.5
	C48.2,64.4,48.2,65.3,47.7,65.8z M56,74.1l-0.5,0.5c-0.5,0.5-1.4,0.5-2,0l-4.3-4.3l1.5-1.5c0.3-0.3,0.6-0.7,0.8-1.1l4.4,4.4
	c0.3,0.3,0.4,0.6,0.4,1C56.4,73.5,56.2,73.8,56,74.1z M72.4,55.7c0.5,0.5,0.5,1.4,0,2l-0.5,0.5c-0.5,0.5-1.4,0.5-2,0l-8.5-8.5
	c-0.8-0.8-2.2-0.8-3,0s-0.8,2.2,0,3l8.5,8.5c0.3,0.3,0.4,0.6,0.4,1c0,0.4-0.1,0.7-0.4,1l-0.5,0.5c-0.5,0.5-1.4,0.5-2,0L56,55.2
	c-0.8-0.8-2.2-0.8-3,0s-0.8,2.2,0,3l8.5,8.5c0.3,0.3,0.4,0.6,0.4,1c0,0.4-0.1,0.7-0.4,1l-0.5,0.5c-0.5,0.5-1.4,0.5-2,0l-8.5-8.5
	c0,0,0,0,0,0l-0.3-0.3c-0.9-0.9-2.1-1.5-3.4-1.6c-0.1-1.2-0.6-2.4-1.6-3.4l-0.5-0.5c-0.9-0.9-2.1-1.4-3.4-1.6
	c-0.1-1.3-0.7-2.5-1.6-3.4l-0.5-0.5c-0.9-0.9-2.1-1.4-3.4-1.6c-0.1-1.2-0.6-2.4-1.6-3.4l-0.5-0.5c-2.2-2.2-5.8-2.2-8,0l-1.5,1.5
	l-8.2-8.2L35,18.3l5,5c-0.9,0.7-1.8,1.5-2.7,2.4l-5.8,5.8c-2.2,2.2-2.2,5.8,0,8L32,40c2.2,2.2,5.8,2.2,8,0l8.4-8.4l15.6,15.6
	L72.4,55.7z M68.1,45.4l-1.2-1.2L49.8,27.2c-0.8-0.8-2.2-0.8-3,0c0,0,0,0,0,0l0,0L36.9,37c-0.5,0.5-1.4,0.5-2,0l-0.5-0.5
	c-0.5-0.5-0.5-1.4,0-2l5.8-5.8c4.2-4.2,8.2-5.6,11.1-6.6c1.8-0.6,3.3-1.1,4.3-2.1l3.9-3.9L78.5,35L68.1,45.4z M84.3,34.8L83,33.5
	L61.1,11.6c0,0,0,0,0,0l-1.3-1.3L65,5.1l24.5,24.5L84.3,34.8z M65,12.3c0.6,0.6,1.5,0.6,2,0c0.6-0.6,0.6-1.5,0-2
	c-0.6-0.6-1.5-0.6-2,0C64.5,10.9,64.5,11.8,65,12.3z"/>
</svg>
