<?xml version="1.0" encoding="utf-8"?>
<!-- Generator: Adobe Illustrator 23.0.3, SVG Export Plug-In . SVG Version: 6.00 Build 0)  -->
<svg version="1.1" id="Layer_1" xmlns="http://www.w3.org/2000/svg" xmlns:xlink="http://www.w3.org/1999/xlink" x="0px" y="0px"
	 viewBox="0 0 79.3 79.3" style="enable-background:new 0 0 79.3 79.3;" xml:space="preserve">
<style type="text/css">
	.st0{fill:url(#SVGID_1_);}
</style>
<linearGradient id="SVGID_1_" gradientUnits="userSpaceOnUse" x1="39.6257" y1="0" x2="39.6257" y2="79.252">
	<stop  offset="0" style="stop-color:#5AAAF7"/>
	<stop  offset="1" style="stop-color:#005093"/>
</linearGradient>
<path class="st0" d="M78,33.2l-4.9-2.4c-0.8-3-2-5.9-3.6-8.6l1.8-5.2c0.3-0.8,0.1-1.6-0.5-2.2l-6.4-6.4c-0.6-0.6-1.4-0.8-2.2-0.5
	l-5.2,1.8c-2.7-1.6-5.6-2.8-8.6-3.6l-2.4-4.9C45.7,0.5,45,0,44.2,0h-9.1c-0.8,0-1.6,0.5-1.9,1.2l-2.4,5c-3,0.8-5.9,2-8.6,3.6L17,7.9
	c-0.8-0.3-1.6-0.1-2.2,0.5l-6.4,6.4c-0.6,0.6-0.8,1.4-0.5,2.2l1.9,5.3C8.2,25,7,27.8,6.2,30.8l-5,2.4C0.5,33.5,0,34.3,0,35.1v9.1
	c0,0.8,0.5,1.6,1.2,1.9l5.1,2.4c0.8,3,2,5.8,3.5,8.4l-1.9,5.3c-0.3,0.8-0.1,1.6,0.5,2.2l6.4,6.4c0.6,0.6,1.4,0.8,2.2,0.5l5.3-1.9
	c2.7,1.5,5.5,2.7,8.4,3.5l2.4,5.1c0.4,0.7,1.1,1.2,1.9,1.2h9.1c0.8,0,1.6-0.5,1.9-1.2l2.4-5c3-0.8,5.8-2,8.5-3.5l5.3,1.9
	c0.8,0.3,1.6,0.1,2.2-0.5l6.4-6.4c0.6-0.6,0.8-1.4,0.5-2.2L69.5,57c1.6-2.7,2.8-5.6,3.6-8.6l5-2.4c0.7-0.4,1.2-1.1,1.2-1.9v-9.1
	C79.3,34.3,78.8,33.5,78,33.2z M75,42.8l-4.7,2.2c-0.6,0.3-1,0.8-1.2,1.4c-0.8,3.2-2,6.3-3.8,9.1c-0.3,0.5-0.4,1.2-0.2,1.8l1.7,4.9
	l-4.5,4.5l-4.9-1.7c-0.6-0.2-1.3-0.1-1.8,0.2c-2.8,1.8-5.9,3-9.1,3.8c-0.6,0.1-1.2,0.6-1.4,1.2L42.8,75h-6.4l-2.3-4.7
	c-0.3-0.6-0.8-1-1.4-1.2c-3.2-0.7-6.2-2-9-3.8c-0.5-0.3-1.2-0.4-1.8-0.2l-5,1.8l-4.5-4.5l1.8-5c0.2-0.6,0.1-1.3-0.2-1.8
	c-1.7-2.8-3-5.8-3.8-9C10,45.9,9.6,45.4,9,45.1l-4.7-2.3v-6.4L9,34.2c0.6-0.3,1-0.8,1.2-1.4c0.7-3.2,2-6.3,3.8-9.1
	c0.3-0.5,0.4-1.2,0.2-1.8l-1.7-4.9l4.5-4.5l4.9,1.7c0.6,0.2,1.3,0.1,1.8-0.2c2.8-1.8,5.9-3.1,9.1-3.8c0.6-0.1,1.2-0.6,1.4-1.2
	l2.2-4.7h6.4L45,8.9c0.3,0.6,0.8,1,1.4,1.2c3.2,0.7,6.3,2,9.2,3.8c0.5,0.3,1.2,0.4,1.8,0.2l4.9-1.7l4.5,4.5l-1.7,4.9
	C65,22.3,65,23,65.4,23.6c1.8,2.9,3.1,5.9,3.8,9.2c0.1,0.6,0.6,1.2,1.2,1.4l4.6,2.2V42.8z M39.6,17.2c-12.4,0-22.4,10.1-22.4,22.4
	c0,11.3,8.5,20.7,19.4,22.2c0,0,0.1,0,0.1,0c0.4,0.1,0.8,0.1,1.2,0.1c0.1,0,0.2,0,0.3,0c0.5,0,0.9,0,1.4,0c0.5,0,0.9,0,1.4,0
	c0.1,0,0.2,0,0.3,0c0.4,0,0.8-0.1,1.2-0.1c0,0,0.1,0,0.1,0C53.6,60.4,62.1,51,62.1,39.6C62.1,27.3,52,17.2,39.6,17.2z M47.9,55.8
	c-0.6,0.3-1.3,0.6-1.9,0.8c0,0-0.1,0-0.1,0c-4,1.5-8.5,1.5-12.5,0c0,0-0.1,0-0.1,0c-0.7-0.2-1.3-0.5-1.9-0.8v-3.1
	c0-2.3,1.9-4.1,4.1-4.1h8.3c2.3,0,4.1,1.8,4.1,4.1V55.8z M52.2,52.8v-0.1c0-4.6-3.8-8.4-8.4-8.4h-8.3c-4.6,0-8.4,3.8-8.4,8.4v0.1
	c-3.5-3.3-5.6-8-5.6-13.1c0-10,8.2-18.2,18.2-18.2c10,0,18.2,8.2,18.2,18.2C57.8,44.8,55.6,49.4,52.2,52.8z M39.6,25.5
	c-4.3,0-7.9,3.5-7.9,7.9c0,4.3,3.5,7.9,7.9,7.9c4.3,0,7.9-3.5,7.9-7.9C47.5,29,44,25.5,39.6,25.5z M39.6,37c-2,0-3.6-1.6-3.6-3.6
	s1.6-3.6,3.6-3.6s3.6,1.6,3.6,3.6S41.6,37,39.6,37z"/>
</svg>
