<?xml version="1.0" encoding="utf-8"?>
<!-- Generator: Adobe Illustrator 23.0.3, SVG Export Plug-In . SVG Version: 6.00 Build 0)  -->
<svg version="1.1" id="Layer_1" xmlns="http://www.w3.org/2000/svg" xmlns:xlink="http://www.w3.org/1999/xlink" x="0px" y="0px"
	 viewBox="0 0 75.9 79.3" style="enable-background:new 0 0 75.9 79.3;" xml:space="preserve">
<style type="text/css">
	.st0{fill:url(#SVGID_1_);}
</style>
<linearGradient id="SVGID_1_" gradientUnits="userSpaceOnUse" x1="37.9626" y1="0" x2="37.9626" y2="79.252">
	<stop  offset="0" style="stop-color:#5AAAF7"/>
	<stop  offset="1" style="stop-color:#005093"/>
</linearGradient>
<path class="st0" d="M73.8,56.8H53c-5.4-2.4-11.6-2.4-17,0h-7.4c-3.4,0-6.1,2.8-6.1,6.1c0,0.5,0.1,0.9,0.2,1.4l-12-7.3
	c0,0-0.1,0-0.1-0.1c-1.7-0.9-3.7-1.1-5.5-0.5c-1.8,0.6-3.3,1.8-4.2,3.5c-1.8,3.5-0.5,7.8,3,9.7l15.4,9.2c0.3,0.2,0.7,0.3,1.1,0.3
	h53.5c1.2,0,2.1-1,2.1-2.1V58.9C75.9,57.7,75,56.8,73.8,56.8z M55.5,75H20.9L5.9,66.1c0,0-0.1,0-0.1-0.1c-1.4-0.8-2-2.5-1.3-4
	c0.4-0.7,1-1.2,1.7-1.4c0.7-0.2,1.5-0.2,2.2,0.2l13.2,8c0.3,0.2,0.7,0.3,1.1,0.3h17c1.2,0,2.1-1,2.1-2.1s-1-2.1-2.1-2.1H28.6
	c-1,0-1.9-0.8-1.9-1.9s0.8-1.9,1.9-1.9h7.8c0.3,0,0.6-0.1,0.9-0.2c4.5-2.2,9.7-2.2,14.2,0c0.3,0.1,0.6,0.2,0.9,0.2h3V75z M71.7,75
	H59.7V61h11.9V75z M35.2,28.5c6.5,0,11.8-5.3,11.8-11.8v-5C47,5.3,41.7,0,35.2,0c-6.5,0-11.8,5.3-11.8,11.8v5
	C23.4,23.3,28.7,28.5,35.2,28.5z M27.7,11.8c0-4.1,3.4-7.5,7.5-7.5c4.1,0,7.5,3.4,7.5,7.5v5c0,4.1-3.4,7.5-7.5,7.5
	c-4.1,0-7.5-3.4-7.5-7.5V11.8z M24.7,40.9c-1.2,0-2.1,1-2.1,2.1v7.7c0,1.2,1,2.1,2.1,2.1s2.1-1,2.1-2.1V43
	C26.9,41.8,25.9,40.9,24.7,40.9z M43.5,43v4.9c0,1.2,1,2.1,2.1,2.1s2.1-1,2.1-2.1V43c0-1.2-1-2.1-2.1-2.1S43.5,41.8,43.5,43z
	 M15,52.9c1.2,0,2.1-1,2.1-2.1v-7.3c0-4.7,3.8-8.5,8.5-8.5h0.7l7.1,10c0.4,0.6,1,0.9,1.7,0.9s1.3-0.3,1.7-0.9l7.1-10h0.7
	c4.7,0,8.5,3.8,8.5,8.5v5.9c0,1.2,1,2.1,2.1,2.1s2.1-1,2.1-2.1v-5.9c0-7.1-5.7-12.8-12.8-12.8H25.6c-7.1,0-12.8,5.7-12.8,12.8v7.3
	C12.8,51.9,13.8,52.9,15,52.9z M38.8,34.9l-3.6,5.1l-3.6-5.1H38.8z"/>
</svg>
