<?xml version="1.0" encoding="utf-8"?>
<!-- Generator: Adobe Illustrator 23.0.3, SVG Export Plug-In . SVG Version: 6.00 Build 0)  -->
<svg version="1.1" id="Layer_1" xmlns="http://www.w3.org/2000/svg" xmlns:xlink="http://www.w3.org/1999/xlink" x="0px" y="0px"
	 viewBox="0 0 220.2 87" style="enable-background:new 0 0 220.2 87;" xml:space="preserve">
<style type="text/css">
	.st0{fill:#007DC4;}
	.st1{fill:#F48120;}
</style>
<g>
	<path class="st0" d="M0,80.2V20.2h11.2v59.9H0z"/>
	<path class="st0" d="M22.2,77.5l4.4-7.5c1.7,1.1,3.8,2,6.4,2.8c2.6,0.7,4.9,1.1,7.1,1.1c3.8,0,6.9-0.9,9.4-2.6
		c2.5-1.7,3.9-3.9,4.2-6.6c0.2-2-0.2-3.8-1.2-5.5c-1.1-1.7-4-3.6-8.9-5.6l-5.4-2.2c-4.6-1.9-7.7-4.1-9.3-6.7
		c-1.6-2.6-2.2-5.7-1.7-9.3c0.5-4.4,2.9-8.1,6.9-11c4.1-2.9,9.1-4.4,14.9-4.4c7.8,0,13.1,1.1,15.9,3.2l-3.7,7
		c-1.2-0.8-3.1-1.5-5.6-2.2c-2.6-0.7-5-1.1-7.2-1.1c-3.3,0-6,0.8-8,2.3c-2.1,1.6-3.3,3.6-3.6,6c-0.2,1.5,0,2.9,0.5,4.1
		c0.5,1.2,1.3,2.3,2.4,3.1c1.1,0.8,3.4,2,7,3.5l5.5,2.3c4.6,1.9,7.7,4.2,9.3,6.9c1.6,2.7,2.2,6,1.7,10.1c-0.5,4.5-3.1,8.2-7.8,11.3
		c-4.6,3.1-10.5,4.6-17.6,4.6C31.6,81.2,26.4,79.9,22.2,77.5z"/>
	<path class="st1" d="M88.8,21.9c-1-0.9-2.3-1.4-3.9-1.4c-1.6,0-3,0.5-4.2,1.4c-1.2,0.9-1.9,2-2.1,3.3c-0.2,1.3,0.3,2.4,1.2,3.4
		c1,0.9,2.3,1.4,3.8,1.4c1.6,0,3-0.5,4.2-1.4c1.2-0.9,1.9-2,2.1-3.4C90.2,24,89.8,22.8,88.8,21.9z"/>
	<polygon class="st0" points="70.1,43.4 77.1,43.4 72.6,80.2 81.7,80.2 87,36.9 70.9,36.9 	"/>
	<path class="st0" d="M170.9,80.2L174,55c0.6-4.6,0.1-7.8-1.3-9.7c-1.4-1.8-4-2.8-7.9-2.8c-2.1,0-4.3,0.5-6.7,1.6
		c-2.4,1.1-4.3,2.3-5.6,3.9l-3.9,32.2h-9l5.3-43.3h6.2l2.2,5.6c3.5-4.3,8.6-6.4,15.3-6.4c11.1,0,16,5.8,14.6,17.3l-3.3,26.8H170.9z"
		/>
	<g>
		<path class="st0" d="M102.8,80.2c1.5,0,3.6-0.2,6.3-0.6c2.7-0.4,4.6-0.7,5.6-0.7c6,0,8.7,1.7,8.3,5.2c-0.1,1-0.7,2-1.6,2.8h9.6
			c0.5-1,0.8-2.1,0.9-3.2c0.4-3.6-0.6-6.4-3.2-8.5c-2.6-2-6.4-3.1-11.4-3.1c-1.4,0-3.6,0.2-6.5,0.6c-2.9,0.4-5.1,0.6-6.5,0.6
			c-3.1,0-4.6-0.6-4.5-1.7c0.1-0.8,0.9-1.5,2.5-2c1.6-0.5,2.8-0.8,3.7-0.9l7.6-0.6c5.3-0.4,9.7-2.1,13.3-5.1c3.6-3,5.6-6.6,6.2-11
			c0.5-4.1-0.3-7.5-2.3-10l6-3.5l-5.3-4.8l-5.1,4.6c-2.6-1.8-6.4-2.6-11.5-2.6c-5.5,0-10.3,1.5-14.4,4.5c-4.1,3-6.4,6.8-7,11.3
			c-0.9,7.1,2.1,12,9,14.9c-2.6,0.5-4.8,1.4-6.7,2.5c-1.9,1.2-2.9,2.5-3,3.9C92.2,77.9,95.5,80.2,102.8,80.2z M102.9,51.9
			c0.3-2.7,1.6-5,3.8-6.9c2.2-1.9,4.9-2.8,8-2.8c2.9,0,5.2,0.9,7,2.8c1.7,1.9,2.4,4.2,2.1,6.9c-0.4,3.1-1.6,5.6-3.6,7.6
			c-2,1.9-4.7,2.9-7.9,2.9c-3.3,0-5.7-1-7.4-3C103.1,57.4,102.5,54.9,102.9,51.9z"/>
	</g>
	<g>
		<path class="st1" d="M196.9,46.7c-2.5,0-4.2-0.4-5-1.3c-0.8-0.9-1.3-2.2-1.3-3.9c0-3.1-0.4-5.6-1.1-7.5c-0.7-1.9-2.1-3.1-4.1-3.6
			c-2-0.5-4.6-0.8-7.9-0.8c-2.7,0-4-2-4-5.9c0-2.6,0.4-4.3,1.3-5.1c0.9-0.8,2.2-1.2,4.1-1.2c2.9,0,5.3-0.4,7.1-1.1
			c1.9-0.7,3.1-2.1,3.7-4c0.6-2,0.9-4.8,0.9-8.6c0-2.5,2.1-3.8,6.3-3.8c2.1,0,3.6,0.4,4.5,1.1c0.9,0.7,1.4,2.1,1.4,4.2
			c0,3,0.3,5.5,1,7.5c0.7,2,2,3.3,4,3.8c2,0.6,4.9,0.8,8.7,0.8c2.5,0,3.8,2.1,3.8,6.3c0,2.1-0.4,3.7-1.1,4.5
			c-0.8,0.9-2.2,1.3-4.3,1.3c-5.5,0-8.8,1-10.1,2.9c-1.3,1.9-1.9,5.4-1.9,10.2C202.7,45.4,200.8,46.7,196.9,46.7z"/>
	</g>
</g>
</svg>
