<?xml version="1.0" encoding="utf-8"?>
<!-- Generator: Adobe Illustrator 23.0.3, SVG Export Plug-In . SVG Version: 6.00 Build 0)  -->
<svg version="1.1" id="Layer_1" xmlns="http://www.w3.org/2000/svg" xmlns:xlink="http://www.w3.org/1999/xlink" x="0px" y="0px"
	 viewBox="0 0 73.2 73.2" style="enable-background:new 0 0 73.2 73.2;" xml:space="preserve">
<style type="text/css">
	.st0{fill:#FFFFFF;}
</style>
<path class="st0" d="M36.6,0C16.4,0,0,16.4,0,36.6s16.4,36.6,36.6,36.6s36.6-16.4,36.6-36.6S56.8,0,36.6,0z M36.6,67.5
	c-16.1,0-29.4-12.4-30.8-28.1h34.3l-7.8,7.8c-1.1,1.1-1.1,2.9,0,4c0.6,0.6,1.3,0.8,2,0.8s1.5-0.3,2-0.8l12.6-12.6l0,0
	c1.1-1.1,1.1-2.9,0-4L36.3,22c-1.1-1.1-2.9-1.1-4,0c-1.1,1.1-1.1,2.9,0,4l7.8,7.8H5.8C7.2,18,20.5,5.7,36.6,5.7
	c17.1,0,30.9,13.9,30.9,30.9C67.5,53.7,53.7,67.5,36.6,67.5z"/>
</svg>
