<?xml version="1.0" encoding="utf-8"?>
<!-- Generator: Adobe Illustrator 23.0.3, SVG Export Plug-In . SVG Version: 6.00 Build 0)  -->
<svg version="1.1" id="Layer_1" xmlns="http://www.w3.org/2000/svg" xmlns:xlink="http://www.w3.org/1999/xlink" x="0px" y="0px"
	 viewBox="0 0 73.2 73.2" style="enable-background:new 0 0 73.2 73.2;" xml:space="preserve">
<style type="text/css">
	.st0{fill:#FFFFFF;}
</style>
<path class="st0" d="M36.6,0C16.4,0,0,16.4,0,36.6s16.4,36.6,36.6,36.6s36.6-16.4,36.6-36.6S56.8,0,36.6,0z M22.3,64
	c1.7-0.6,3.6-1.1,5.8-1.6c2.5-0.5,4.3-2.6,4.3-5v-5.2c0-1.3-0.5-2.6-1.3-3.5c-1.2-1.5-2-3.2-2.2-5c-0.2-1.4-1-2.6-2.2-3.4
	c-0.3-0.2-0.5-0.3-0.7-0.5c1.6-0.7,2.8-2.2,2.9-4c0,0,0-0.1,0-0.2l0.1-5c0-0.7,0.1-1.4,0.4-2c0.8-1.6,2.8-3.8,5.7-4.5
	c0.6,1.7,2.2,3,4.2,3.2c2.2,0.3,4.2,1.3,5.4,2.8c0.2,0.2,0.4,0.6,0.4,1v4.3c0,1.8,1.1,3.4,2.8,4.1c-0.2,0.2-0.4,0.4-0.7,0.5
	c-1.2,0.7-2,1.9-2.2,3.3c-0.2,1.8-1,3.6-2.3,5.1c-0.9,1-1.4,2.3-1.4,3.6v5.2c0,2.4,1.8,4.4,4.3,5c2.1,0.5,3.8,0.9,5.4,1.5
	c-4.3,2.3-9.2,3.5-14.4,3.5C31.4,67.5,26.6,66.2,22.3,64z M56.5,60.3c-3.1-1.6-5.9-2.5-9.6-3.3v-4.6l0,0c1.9-2.2,3.1-4.8,3.5-7.6
	c2.2-1.5,3.6-3.9,3.6-6.5c0-1.1-0.5-2.1-1.4-2.9c-0.6-0.5-1.3-0.8-2-0.9v-3.3c0-1.7-0.6-3.4-1.7-4.6c-2-2.5-5.1-4.2-8.5-4.8v-0.7
	c0-1.6-1.3-2.8-2.8-2.8h-1.1c-5.9,0-10.6,4.1-12.4,7.9c-0.7,1.4-1,2.9-1,4.4l-0.1,4c-0.8,0.1-1.5,0.4-2.1,0.9
	c-0.9,0.7-1.5,1.9-1.5,3c0,2.6,1.4,5,3.7,6.5c0.4,2.6,1.6,5.1,3.4,7.4v4.5c-3.8,0.8-6.7,1.6-10,3.4c-6.7-5.7-11-14.2-11-23.7
	c0-17.1,13.9-30.9,30.9-30.9c17.1,0,30.9,13.9,30.9,30.9C67.5,46.1,63.2,54.6,56.5,60.3z"/>
</svg>
