<?xml version="1.0" encoding="utf-8"?>
<!-- Generator: Adobe Illustrator 23.0.2, SVG Export Plug-In . SVG Version: 6.00 Build 0)  -->
<svg version="1.1" id="Layer_1" xmlns="http://www.w3.org/2000/svg" xmlns:xlink="http://www.w3.org/1999/xlink" x="0px" y="0px"
	 viewBox="0 0 11.94 15.3" style="enable-background:new 0 0 11.94 15.3;" xml:space="preserve">
<style type="text/css">
	.st0{fill:#8F96A1;}
</style>
<path class="st0" d="M11.8,2.83L9.12,0.15C9.02,0.05,8.9,0,8.76,0H0.5C0.22,0,0,0.22,0,0.5v14.3c0,0.28,0.22,0.5,0.5,0.5h10.94
	c0.28,0,0.5-0.22,0.5-0.5V3.18C11.94,3.05,11.89,2.92,11.8,2.83z M9.26,1.71l0.97,0.97H9.26V1.71z M10.94,14.3H1V1h7.26v2.18
	c0,0.28,0.22,0.5,0.5,0.5h2.18V14.3z M5.84,5.25c-1.93,0-3.51,1.57-3.51,3.51s1.57,3.51,3.51,3.51c0.84,0,1.6-0.31,2.2-0.8
	l1.81,1.81c0.1,0.1,0.23,0.15,0.35,0.15s0.26-0.05,0.35-0.15c0.2-0.2,0.2-0.51,0-0.71l-1.83-1.83c0.39-0.56,0.61-1.24,0.61-1.98
	C9.34,6.82,7.77,5.25,5.84,5.25z M5.84,11.27c-1.38,0-2.51-1.12-2.51-2.51c0-1.38,1.12-2.51,2.51-2.51s2.51,1.12,2.51,2.51
	C8.34,10.14,7.22,11.27,5.84,11.27z"/>
</svg>
