<?xml version="1.0" encoding="utf-8"?>
<!-- Generator: Adobe Illustrator 23.0.2, SVG Export Plug-In . SVG Version: 6.00 Build 0)  -->
<svg version="1.1" id="Layer_1" xmlns="http://www.w3.org/2000/svg" xmlns:xlink="http://www.w3.org/1999/xlink" x="0px" y="0px"
	 viewBox="0 0 11.9 15.3" style="enable-background:new 0 0 11.9 15.3;" xml:space="preserve">
<style type="text/css">
	.st0{fill:#8F96A1;}
</style>
<path class="st0" d="M11.8,2.8L9.1,0.2C9,0.1,8.9,0,8.8,0H0.5C0.2,0,0,0.2,0,0.5v14.3c0,0.3,0.2,0.5,0.5,0.5h10.9
	c0.3,0,0.5-0.2,0.5-0.5V3.2C11.9,3,11.9,2.9,11.8,2.8z M9.3,1.7l1,1h-1V1.7z M10.9,14.3H1V1h7.3v2.2c0,0.3,0.2,0.5,0.5,0.5h2.2
	C10.9,3.7,10.9,14.3,10.9,14.3z M5.8,5.2c-1.9,0-3.5,1.6-3.5,3.5s1.6,3.5,3.5,3.5c0.8,0,1.6-0.3,2.2-0.8l1.8,1.8
	c0.1,0.1,0.2,0.1,0.4,0.1s0.3-0.1,0.4-0.1c0.2-0.2,0.2-0.5,0-0.7l-1.8-1.8c0.4-0.6,0.6-1.2,0.6-2C9.3,6.8,7.8,5.2,5.8,5.2z
	 M5.8,11.3c-1.4,0-2.5-1.1-2.5-2.5c0-1.4,1.1-2.5,2.5-2.5s2.5,1.1,2.5,2.5C8.3,10.1,7.2,11.3,5.8,11.3z"/>
</svg>
