<?xml version="1.0" encoding="utf-8"?>
<!-- Generator: Adobe Illustrator 23.0.2, SVG Export Plug-In . SVG Version: 6.00 Build 0)  -->
<svg version="1.1" id="Layer_1" xmlns="http://www.w3.org/2000/svg" xmlns:xlink="http://www.w3.org/1999/xlink" x="0px" y="0px"
	 viewBox="0 0 15.83 14.91" style="enable-background:new 0 0 15.83 14.91;" xml:space="preserve">
<style type="text/css">
	.st0{fill:#8F96A1;}
</style>
<path class="st0" d="M10.18,5.62L8.76,6.79C8.51,6.63,8.22,6.53,7.9,6.53c-0.86,0-1.56,0.71-1.56,1.59c0,0.88,0.7,1.59,1.56,1.59
	s1.56-0.71,1.56-1.59c0-0.19-0.04-0.36-0.1-0.53l1.45-1.2c0.21-0.18,0.24-0.49,0.07-0.7C10.71,5.47,10.39,5.44,10.18,5.62z
	 M7.9,8.71c-0.31,0-0.56-0.26-0.56-0.59c0-0.32,0.25-0.59,0.56-0.59S8.46,7.8,8.46,8.12C8.46,8.44,8.21,8.71,7.9,8.71z M8.47,2.68
	c0-0.31-0.25-0.57-0.55-0.57c-0.31,0-0.55,0.25-0.55,0.57s0.25,0.57,0.55,0.57C8.22,3.24,8.47,2.99,8.47,2.68z M13.76,8.11
	c0-0.31-0.25-0.57-0.55-0.57s-0.55,0.25-0.55,0.57s0.25,0.57,0.55,0.57S13.76,8.42,13.76,8.11z M2.62,7.54
	c-0.31,0-0.55,0.25-0.55,0.57s0.25,0.57,0.55,0.57s0.55-0.25,0.55-0.57S2.93,7.54,2.62,7.54z M12.05,4.67c0.22-0.22,0.22-0.58,0-0.8
	c-0.22-0.22-0.57-0.22-0.78,0c-0.22,0.22-0.22,0.58,0,0.8C11.48,4.89,11.83,4.89,12.05,4.67z M3.78,11.55
	c-0.22,0.22-0.22,0.58,0,0.8c0.22,0.22,0.57,0.22,0.78,0c0.22-0.22,0.22-0.58,0-0.8C4.35,11.33,4,11.33,3.78,11.55z M12.05,12.35
	c0.22-0.22,0.22-0.58,0-0.8c-0.22-0.22-0.57-0.22-0.78,0c-0.22,0.22-0.22,0.58,0,0.8C11.48,12.57,11.83,12.57,12.05,12.35z
	 M3.78,3.87c-0.22,0.22-0.22,0.58,0,0.8c0.22,0.22,0.57,0.22,0.78,0c0.22-0.22,0.22-0.58,0-0.8C4.35,3.64,4,3.64,3.78,3.87z M7.92,0
	C3.55,0,0,3.64,0,8.11c0,2.69,1.32,5.21,3.53,6.72c0.23,0.16,0.54,0.1,0.69-0.13c0.16-0.23,0.1-0.54-0.13-0.7
	C2.16,12.67,1,10.47,1,8.11C1,4.19,4.1,1,7.92,1s6.92,3.19,6.92,7.11c0,2.36-1.16,4.57-3.09,5.89c-0.23,0.16-0.29,0.47-0.13,0.69
	c0.1,0.14,0.25,0.22,0.41,0.22c0.1,0,0.2-0.03,0.28-0.09c2.21-1.51,3.53-4.02,3.53-6.72C15.83,3.64,12.28,0,7.92,0z"/>
</svg>
