<?xml version="1.0" encoding="utf-8"?>
<!-- Generator: Adobe Illustrator 23.0.2, SVG Export Plug-In . SVG Version: 6.00 Build 0)  -->
<svg version="1.1" id="Layer_1" xmlns="http://www.w3.org/2000/svg" xmlns:xlink="http://www.w3.org/1999/xlink" x="0px" y="0px"
	 viewBox="0 0 16 16" style="enable-background:new 0 0 16 16;" xml:space="preserve">
<style type="text/css">
	.st0{fill:#8F96A1;}
</style>
<path class="st0" d="M14.85,6.29c-0.17-0.67-0.43-1.31-0.8-1.91l0.51-1.12l-1.82-1.82l-1.12,0.51c-0.6-0.36-1.24-0.63-1.91-0.8
	L9.28,0H6.72L6.29,1.15c-0.67,0.17-1.31,0.43-1.92,0.8L3.25,1.44L1.43,3.25l0.51,1.12c-0.36,0.6-0.63,1.24-0.8,1.91L0,6.72v2.57
	l1.15,0.43c0.17,0.67,0.44,1.31,0.8,1.92l-0.51,1.12l1.82,1.82l1.12-0.51c0.6,0.36,1.24,0.63,1.92,0.8L6.72,16h2.57l0.43-1.15
	c0.67-0.17,1.31-0.43,1.91-0.8l1.12,0.51l1.82-1.82l-0.51-1.12c0.36-0.6,0.63-1.24,0.8-1.92L16,9.28V6.72L14.85,6.29z M15,8.59
	l-1.01,0.38l-0.06,0.27c-0.15,0.74-0.44,1.44-0.86,2.08l-0.15,0.23l0.45,0.98l-0.84,0.84l-0.98-0.45l-0.23,0.15
	c-0.64,0.42-1.34,0.71-2.08,0.86l-0.27,0.06L8.59,15H7.41l-0.38-1.01l-0.27-0.06c-0.74-0.15-1.44-0.44-2.08-0.86l-0.23-0.15
	l-0.98,0.45l-0.84-0.84l0.45-0.98l-0.15-0.23c-0.42-0.64-0.71-1.34-0.86-2.08L2.01,8.97L1,8.59V7.41l1.01-0.38l0.06-0.27
	c0.15-0.74,0.44-1.44,0.86-2.08l0.15-0.23L2.63,3.47l0.84-0.84l0.98,0.45l0.23-0.15c0.64-0.42,1.34-0.71,2.08-0.86l0.27-0.06L7.41,1
	h1.18l0.38,1.01l0.27,0.06c0.74,0.15,1.43,0.44,2.08,0.86l0.23,0.15l0.98-0.45l0.84,0.84l-0.45,0.98l0.15,0.23
	c0.42,0.64,0.71,1.34,0.86,2.08l0.06,0.27L15,7.41V8.59z M8,4.69C6.17,4.69,4.69,6.17,4.69,8S6.17,11.31,8,11.31S11.31,9.83,11.31,8
	S9.83,4.69,8,4.69z M8,10.31c-1.28,0-2.31-1.04-2.31-2.31S6.72,5.69,8,5.69S10.31,6.72,10.31,8S9.28,10.31,8,10.31z"/>
</svg>
