<?xml version="1.0" encoding="utf-8"?>
<!-- Generator: Adobe Illustrator 23.0.2, SVG Export Plug-In . SVG Version: 6.00 Build 0)  -->
<svg version="1.1" id="Layer_1" xmlns="http://www.w3.org/2000/svg" xmlns:xlink="http://www.w3.org/1999/xlink" x="0px" y="0px"
	 viewBox="0 0 11.94 15.3" style="enable-background:new 0 0 11.94 15.3;" xml:space="preserve">
<style type="text/css">
	.st0{fill:#8F96A1;}
</style>
<path class="st0" d="M11.8,2.83L9.12,0.15C9.02,0.05,8.9,0,8.76,0H0.5C0.22,0,0,0.22,0,0.5v14.3c0,0.28,0.22,0.5,0.5,0.5h10.94
	c0.28,0,0.5-0.22,0.5-0.5V3.18C11.94,3.05,11.89,2.92,11.8,2.83z M9.26,1.71l0.97,0.97H9.26V1.71z M10.94,14.3H1V1h7.26v2.18
	c0,0.28,0.22,0.5,0.5,0.5h2.18V14.3z M3.6,9.45c-0.28,0-0.5,0.22-0.5,0.5v2.42c0,0.28,0.22,0.5,0.5,0.5s0.5-0.22,0.5-0.5V9.95
	C4.1,9.67,3.88,9.45,3.6,9.45z M8.35,7.15c-0.28,0-0.5,0.22-0.5,0.5v4.72c0,0.28,0.22,0.5,0.5,0.5s0.5-0.22,0.5-0.5V7.65
	C8.85,7.37,8.62,7.15,8.35,7.15z M5.97,5.02c-0.28,0-0.5,0.22-0.5,0.5v6.84c0,0.28,0.22,0.5,0.5,0.5s0.5-0.22,0.5-0.5V5.52
	C6.47,5.25,6.25,5.02,5.97,5.02z"/>
</svg>
