<?xml version="1.0" encoding="utf-8"?>
<!-- Generator: Adobe Illustrator 23.0.2, SVG Export Plug-In . SVG Version: 6.00 Build 0)  -->
<svg version="1.1" id="Layer_1" xmlns="http://www.w3.org/2000/svg" xmlns:xlink="http://www.w3.org/1999/xlink" x="0px" y="0px"
	 viewBox="0 0 14.59 15.13" style="enable-background:new 0 0 14.59 15.13;" xml:space="preserve">
<style type="text/css">
	.st0{fill:#8F96A1;}
</style>
<path class="st0" d="M14.45,14.28l-2.24-2.26c1.21-1.28,1.96-3,1.96-4.91C14.17,3.19,10.99,0,7.08,0S0,3.19,0,7.12
	c0,3.93,3.18,7.12,7.08,7.12c1.65,0,3.18-0.58,4.38-1.54l2.27,2.29c0.1,0.1,0.23,0.15,0.35,0.15s0.25-0.05,0.35-0.15
	C14.64,14.79,14.64,14.48,14.45,14.28z M7.08,13.24C3.73,13.24,1,10.49,1,7.12S3.73,1,7.08,1c3.36,0,6.08,2.75,6.08,6.12
	S10.44,13.24,7.08,13.24z M10.48,4.8c-0.02-0.01-0.04-0.01-0.06-0.01c-0.03-0.01-0.06-0.02-0.1-0.02l-2.39,0
	c-0.28,0-0.5,0.22-0.5,0.5c0,0.28,0.22,0.5,0.5,0.5l1.26,0L6.64,8.64L5.02,6.13C4.93,6,4.78,5.91,4.62,5.9
	C4.46,5.89,4.31,5.96,4.21,6.09l-1.76,2.2C2.27,8.5,2.31,8.82,2.52,8.99c0.22,0.17,0.53,0.14,0.7-0.08l1.33-1.66l1.6,2.48
	c0.08,0.13,0.23,0.21,0.38,0.23c0.01,0,0.03,0,0.04,0c0.14,0,0.28-0.06,0.37-0.17L9.9,6.47L10,7.91c0.02,0.26,0.24,0.47,0.5,0.47
	c0.01,0,0.02,0,0.04,0c0.28-0.02,0.48-0.26,0.46-0.53l-0.18-2.6C10.81,5.03,10.67,4.86,10.48,4.8z"/>
</svg>
