<?xml version="1.0" encoding="utf-8"?>
<!-- Generator: Adobe Illustrator 23.0.2, SVG Export Plug-In . SVG Version: 6.00 Build 0)  -->
<svg version="1.1" id="Layer_1" xmlns="http://www.w3.org/2000/svg" xmlns:xlink="http://www.w3.org/1999/xlink" x="0px" y="0px"
	 viewBox="0 0 15.8 14.9" style="enable-background:new 0 0 15.8 14.9;" xml:space="preserve">
<style type="text/css">
	.st0{fill:#8F96A1;}
</style>
<path class="st0" d="M10.2,5.6L8.8,6.8C8.5,6.6,8.2,6.5,7.9,6.5C7,6.5,6.3,7.2,6.3,8.1S7,9.7,7.9,9.7S9.5,9,9.5,8.1
	c0-0.2,0-0.4-0.1-0.5l1.4-1.2C11,6.2,11,5.9,10.9,5.7C10.7,5.5,10.4,5.4,10.2,5.6z M7.9,8.7c-0.3,0-0.6-0.3-0.6-0.6
	c0-0.3,0.2-0.6,0.6-0.6s0.6,0.3,0.6,0.6S8.2,8.7,7.9,8.7z M8.5,2.7c0-0.3-0.2-0.6-0.6-0.6c-0.3,0-0.6,0.2-0.6,0.6s0.2,0.6,0.6,0.6
	C8.2,3.2,8.5,3,8.5,2.7z M13.8,8.1c0-0.3-0.2-0.6-0.6-0.6s-0.6,0.2-0.6,0.6c0,0.3,0.2,0.6,0.6,0.6S13.8,8.4,13.8,8.1z M2.6,7.5
	c-0.3,0-0.5,0.2-0.5,0.6s0.2,0.6,0.5,0.6s0.5-0.2,0.5-0.6S2.9,7.5,2.6,7.5z M12.1,4.7c0.2-0.2,0.2-0.6,0-0.8s-0.6-0.2-0.8,0
	c-0.2,0.2-0.2,0.6,0,0.8C11.5,4.9,11.8,4.9,12.1,4.7z M3.8,11.6c-0.2,0.2-0.2,0.6,0,0.8s0.6,0.2,0.8,0c0.2-0.2,0.2-0.6,0-0.8
	C4.3,11.3,4,11.3,3.8,11.6z M12.1,12.4c0.2-0.2,0.2-0.6,0-0.8s-0.6-0.2-0.8,0c-0.2,0.2-0.2,0.6,0,0.8C11.5,12.6,11.8,12.6,12.1,12.4
	z M3.8,3.9c-0.2,0.2-0.2,0.6,0,0.8c0.2,0.2,0.6,0.2,0.8,0c0.2-0.2,0.2-0.6,0-0.8C4.3,3.6,4,3.6,3.8,3.9z M7.9,0C3.5,0,0,3.6,0,8.1
	c0,2.7,1.3,5.2,3.5,6.7c0.2,0.2,0.5,0.1,0.7-0.1c0.2-0.2,0.1-0.5-0.1-0.7C2.2,12.7,1,10.5,1,8.1C1,4.2,4.1,1,7.9,1s6.9,3.2,6.9,7.1
	c0,2.4-1.2,4.6-3.1,5.9c-0.2,0.2-0.3,0.5-0.1,0.7c0.1,0.1,0.2,0.2,0.4,0.2c0.1,0,0.2,0,0.3-0.1c2.2-1.5,3.5-4,3.5-6.7
	C15.8,3.6,12.3,0,7.9,0z"/>
</svg>
