<?xml version="1.0" encoding="utf-8"?>
<!-- Generator: Adobe Illustrator 23.0.2, SVG Export Plug-In . SVG Version: 6.00 Build 0)  -->
<svg version="1.1" id="Layer_1" xmlns="http://www.w3.org/2000/svg" xmlns:xlink="http://www.w3.org/1999/xlink" x="0px" y="0px"
	 viewBox="0 0 11.9 15.3" style="enable-background:new 0 0 11.9 15.3;" xml:space="preserve">
<style type="text/css">
	.st0{fill:#8F96A1;}
</style>
<path class="st0" d="M11.8,2.8L9.1,0.2C9,0.1,8.9,0,8.8,0H0.5C0.2,0,0,0.2,0,0.5v14.3c0,0.3,0.2,0.5,0.5,0.5h10.9
	c0.3,0,0.5-0.2,0.5-0.5V3.2C11.9,3,11.9,2.9,11.8,2.8z M9.3,1.7l1,1h-1V1.7z M10.9,14.3H1V1h7.3v2.2c0,0.3,0.2,0.5,0.5,0.5h2.2
	C10.9,3.7,10.9,14.3,10.9,14.3z M3.6,9.4c-0.3,0-0.5,0.2-0.5,0.5v2.4c0,0.3,0.2,0.5,0.5,0.5s0.5-0.2,0.5-0.5V9.9
	C4.1,9.7,3.9,9.4,3.6,9.4z M8.4,7.2c-0.3,0-0.5,0.2-0.5,0.5v4.7c0,0.3,0.2,0.5,0.5,0.5s0.5-0.2,0.5-0.5V7.7C8.9,7.4,8.6,7.2,8.4,7.2
	z M6,5C5.7,5,5.5,5.2,5.5,5.5v6.8c0,0.3,0.2,0.5,0.5,0.5s0.5-0.2,0.5-0.5V5.5C6.5,5.2,6.2,5,6,5z"/>
</svg>
