<?xml version="1.0" encoding="utf-8"?>
<!-- Generator: Adobe Illustrator 23.0.2, SVG Export Plug-In . SVG Version: 6.00 Build 0)  -->
<svg version="1.1" id="Layer_1" xmlns="http://www.w3.org/2000/svg" xmlns:xlink="http://www.w3.org/1999/xlink" x="0px" y="0px"
	 viewBox="0 0 15.46 15.46" style="enable-background:new 0 0 15.46 15.46;" xml:space="preserve">
<style type="text/css">
	.st0{fill:#8F96A1;}
</style>
<path class="st0" d="M4.61,14.46H1v-3.59c0-0.28-0.22-0.5-0.5-0.5S0,10.59,0,10.86v4.09c0,0.28,0.22,0.5,0.5,0.5h4.11
	c0.28,0,0.5-0.22,0.5-0.5S4.89,14.46,4.61,14.46z M0.5,5.09c0.28,0,0.5-0.22,0.5-0.5V1h3.61c0.28,0,0.5-0.22,0.5-0.5S4.89,0,4.61,0
	H0.5C0.22,0,0,0.22,0,0.5v4.09C0,4.87,0.22,5.09,0.5,5.09z M14.96,10.36c-0.28,0-0.5,0.22-0.5,0.5v3.59h-3.61
	c-0.28,0-0.5,0.22-0.5,0.5s0.22,0.5,0.5,0.5h4.11c0.28,0,0.5-0.22,0.5-0.5v-4.09C15.46,10.59,15.23,10.36,14.96,10.36z M14.96,0
	h-4.11c-0.28,0-0.5,0.22-0.5,0.5S10.57,1,10.85,1h3.61v3.59c0,0.28,0.22,0.5,0.5,0.5s0.5-0.22,0.5-0.5V0.5
	C15.46,0.22,15.23,0,14.96,0z M11.81,8.23h1.6c0.28,0,0.5-0.22,0.5-0.5s-0.22-0.5-0.5-0.5h-1.6c-0.23-1.88-1.71-3.35-3.58-3.58v-1.6
	c0-0.28-0.22-0.5-0.5-0.5s-0.5,0.22-0.5,0.5v1.6C5.35,3.88,3.88,5.35,3.65,7.23h-1.6c-0.28,0-0.5,0.22-0.5,0.5s0.22,0.5,0.5,0.5h1.6
	c0.23,1.88,1.71,3.35,3.58,3.58v1.6c0,0.28,0.22,0.5,0.5,0.5s0.5-0.22,0.5-0.5v-1.6C10.1,11.58,11.58,10.1,11.81,8.23z M8.23,10.81
	v-1.5c0-0.28-0.22-0.5-0.5-0.5s-0.5,0.22-0.5,0.5v1.5C5.9,10.6,4.86,9.55,4.65,8.23h1.5c0.28,0,0.5-0.22,0.5-0.5s-0.22-0.5-0.5-0.5
	h-1.5C4.86,5.9,5.9,4.86,7.23,4.65v1.5c0,0.28,0.22,0.5,0.5,0.5s0.5-0.22,0.5-0.5v-1.5c1.33,0.21,2.37,1.26,2.58,2.58h-1.5
	c-0.28,0-0.5,0.22-0.5,0.5s0.22,0.5,0.5,0.5h1.5C10.6,9.55,9.55,10.6,8.23,10.81z"/>
</svg>
