<?xml version="1.0" encoding="utf-8"?>
<!-- Generator: Adobe Illustrator 23.0.2, SVG Export Plug-In . SVG Version: 6.00 Build 0)  -->
<svg version="1.1" id="Layer_1" xmlns="http://www.w3.org/2000/svg" xmlns:xlink="http://www.w3.org/1999/xlink" x="0px" y="0px"
	 viewBox="0 0 15.5 15.5" style="enable-background:new 0 0 15.5 15.5;" xml:space="preserve">
<style type="text/css">
	.st0{fill:#8F96A1;}
</style>
<path class="st0" d="M4.6,14.5H1v-3.6c0-0.3-0.2-0.5-0.5-0.5S0,10.6,0,10.9v4.1c0,0.3,0.2,0.5,0.5,0.5h4.1c0.3,0,0.5-0.2,0.5-0.5
	S4.9,14.5,4.6,14.5z M0.5,5.1C0.8,5.1,1,4.9,1,4.6V1h3.6c0.3,0,0.5-0.2,0.5-0.5S4.9,0,4.6,0H0.5C0.2,0,0,0.2,0,0.5v4.1
	C0,4.9,0.2,5.1,0.5,5.1z M15,10.4c-0.3,0-0.5,0.2-0.5,0.5v3.6h-3.6c-0.3,0-0.5,0.2-0.5,0.5s0.2,0.5,0.5,0.5H15
	c0.3,0,0.5-0.2,0.5-0.5v-4.1C15.5,10.6,15.2,10.4,15,10.4z M15,0h-4.1c-0.3,0-0.5,0.2-0.5,0.5S10.6,1,10.9,1h3.6v3.6
	c0,0.3,0.2,0.5,0.5,0.5s0.5-0.2,0.5-0.5V0.5C15.5,0.2,15.2,0,15,0z M11.8,8.2h1.6c0.3,0,0.5-0.2,0.5-0.5s-0.2-0.5-0.5-0.5h-1.6
	c-0.2-1.9-1.7-3.3-3.6-3.6V2c0-0.3-0.2-0.5-0.5-0.5S7.2,1.8,7.2,2v1.6C5.3,3.9,3.9,5.3,3.7,7.2H2.1c-0.3,0-0.5,0.2-0.5,0.5
	s0.2,0.5,0.5,0.5h1.6c0.2,1.9,1.7,3.4,3.6,3.6v1.6c0,0.3,0.2,0.5,0.5,0.5s0.5-0.2,0.5-0.5v-1.6C10.1,11.6,11.6,10.1,11.8,8.2z
	 M8.2,10.8V9.3C8.2,9,8,8.8,7.7,8.8S7.2,9,7.2,9.3v1.5c-1.3-0.2-2.4-1.3-2.6-2.6h1.5c0.3,0,0.5-0.2,0.5-0.5S6.4,7.2,6.2,7.2H4.7
	c0.2-1.3,1.2-2.4,2.6-2.6v1.5c0,0.3,0.2,0.5,0.5,0.5s0.5-0.2,0.5-0.5V4.7c1.3,0.2,2.4,1.3,2.6,2.6H9.3C9,7.2,8.8,7.4,8.8,7.7
	S9,8.2,9.3,8.2h1.5C10.6,9.6,9.6,10.6,8.2,10.8z"/>
</svg>
