<?xml version="1.0" encoding="utf-8"?>
<!-- Generator: Adobe Illustrator 23.0.2, SVG Export Plug-In . SVG Version: 6.00 Build 0)  -->
<svg version="1.1" id="Layer_1" xmlns="http://www.w3.org/2000/svg" xmlns:xlink="http://www.w3.org/1999/xlink" x="0px" y="0px"
	 viewBox="0 0 14.6 15.1" style="enable-background:new 0 0 14.6 15.1;" xml:space="preserve">
<style type="text/css">
	.st0{fill:#8F96A1;}
</style>
<path class="st0" d="M14.4,14.3L12.2,12c1.2-1.3,2-3,2-4.9C14.2,3.2,11,0,7.1,0S0,3.2,0,7.1s3.2,7.1,7.1,7.1c1.6,0,3.2-0.6,4.4-1.5
	l2.3,2.3c0.1,0.1,0.2,0.1,0.4,0.1s0.2-0.1,0.4-0.1C14.6,14.8,14.6,14.5,14.4,14.3z M7.1,13.2C3.7,13.2,1,10.5,1,7.1S3.7,1,7.1,1
	c3.4,0,6.1,2.8,6.1,6.1S10.4,13.2,7.1,13.2z M10.5,4.8C10.5,4.8,10.4,4.8,10.5,4.8c-0.1,0-0.1,0-0.2,0H7.9C7.6,4.8,7.4,5,7.4,5.3
	s0.2,0.5,0.5,0.5h1.3L6.6,8.6L5,6.1C4.9,6,4.8,5.9,4.6,5.9C4.5,5.9,4.3,6,4.2,6.1L2.5,8.3C2.3,8.5,2.3,8.8,2.5,9
	C2.7,9.2,3,9.1,3.2,8.9l1.3-1.7l1.6,2.5C6.2,9.9,6.4,9.9,6.5,10c0,0,0,0,0,0c0.1,0,0.3-0.1,0.4-0.2l3-3.3L10,7.9
	c0,0.3,0.2,0.5,0.5,0.5c0,0,0,0,0,0c0.3,0,0.5-0.3,0.5-0.5l-0.2-2.6C10.8,5,10.7,4.9,10.5,4.8z"/>
</svg>
