<?xml version="1.0" encoding="utf-8"?>
<!-- Generator: Adobe Illustrator 23.0.2, SVG Export Plug-In . SVG Version: 6.00 Build 0)  -->
<svg version="1.1" id="Layer_1" xmlns="http://www.w3.org/2000/svg" xmlns:xlink="http://www.w3.org/1999/xlink" x="0px" y="0px"
	 viewBox="0 0 16 16" style="enable-background:new 0 0 16 16;" xml:space="preserve">
<style type="text/css">
	.st0{fill:#8F96A1;}
</style>
<path class="st0" d="M14.9,6.3c-0.2-0.7-0.4-1.3-0.8-1.9l0.5-1.1l-1.8-1.8L11.6,2C11,1.6,10.4,1.3,9.7,1.2L9.3,0H6.7L6.3,1.1
	C5.6,1.3,5,1.6,4.4,2L3.2,1.4L1.4,3.2l0.5,1.1C1.6,5,1.3,5.6,1.1,6.3L0,6.7v2.6l1.1,0.4C1.3,10.4,1.6,11,2,11.6l-0.5,1.1l1.8,1.8
	l1.1-0.5c0.6,0.4,1.2,0.6,1.9,0.8L6.7,16h2.6l0.4-1.1c0.7-0.2,1.3-0.4,1.9-0.8l1.1,0.5l1.8-1.8l-0.5-1.1c0.4-0.6,0.6-1.2,0.8-1.9
	L16,9.3V6.7L14.9,6.3z M15,8.6L14,9l-0.1,0.3c-0.1,0.7-0.4,1.4-0.9,2.1l-0.1,0.2l0.4,1l-0.8,0.8l-1-0.4l-0.2,0.1
	c-0.6,0.4-1.3,0.7-2.1,0.9L9,14l-0.4,1H7.4L7,14l-0.3-0.1c-0.7-0.1-1.4-0.4-2.1-0.9l-0.2-0.1l-1,0.4l-0.8-0.8l0.5-1l-0.2-0.2
	C2.5,10.7,2.2,10,2.1,9.2L2,9L1,8.6V7.4L2,7l0.1-0.3C2.2,6,2.5,5.3,2.9,4.7l0.2-0.2l-0.4-1l0.8-0.8l1,0.5l0.2-0.2
	C5.3,2.5,6,2.2,6.8,2.1L7,2l0.4-1h1.2L9,2l0.3,0.1c0.7,0.2,1.4,0.4,2.1,0.9l0.2,0.2l1-0.5l0.8,0.8l-0.4,1l0.1,0.2
	c0.4,0.6,0.7,1.3,0.9,2.1L14,7l1,0.4V8.6z M8,4.7C6.2,4.7,4.7,6.2,4.7,8s1.5,3.3,3.3,3.3s3.3-1.5,3.3-3.3S9.8,4.7,8,4.7z M8,10.3
	c-1.3,0-2.3-1-2.3-2.3s1-2.3,2.3-2.3s2.3,1,2.3,2.3S9.3,10.3,8,10.3z"/>
</svg>
