<?xml version="1.0" encoding="utf-8"?>
<!-- Generator: Adobe Illustrator 23.0.2, SVG Export Plug-In . SVG Version: 6.00 Build 0)  -->
<svg version="1.1" id="Layer_1" xmlns="http://www.w3.org/2000/svg" xmlns:xlink="http://www.w3.org/1999/xlink" x="0px" y="0px"
	 viewBox="0 0 13.99 15.99" style="enable-background:new 0 0 13.99 15.99;" xml:space="preserve">
<style type="text/css">
	.st0{fill:#939598;}
</style>
<path class="st0" d="M13.5,15.99c-0.01,0-0.03,0-0.04,0H0.54C0.25,16.02,0,15.79,0,15.5v-1.16c0-1.37,0.05-2.19,1.16-3.21
	c0.79-0.73,2.13-0.99,2.84-1.08V8.71C3.36,8.07,3,7.27,3,6.5v-3C3,1.2,5.01,0,7,0c1.99,0,4,1.2,4,3.5v3c0,0.78-0.36,1.57-1,2.21
	v1.34c0.71,0.09,2.05,0.36,2.84,1.08c1.11,1.02,1.16,1.84,1.16,3.21c0,0,0,0.88,0,1.15S13.77,15.99,13.5,15.99z M13,15.5L13,15.5
	L13,15.5z M7,0.99c-1.45,0-3,0.78-3,2.5v3c0,0.55,0.31,1.16,0.83,1.63c0.1,0.09,0.17,0.23,0.17,0.37v2c0,0.26-0.21,0.48-0.47,0.5
	c-0.52,0.03-2.01,0.24-2.69,0.87c-0.8,0.74-0.84,1.21-0.84,2.48c0,0-0.02,0.66,0,0.66H13v-0.66c0-1.27-0.04-1.75-0.84-2.48
	c-0.68-0.63-2.17-0.84-2.69-0.87C9.21,10.98,9,10.76,9,10.5v-2c0-0.14,0.06-0.28,0.17-0.37C9.69,7.66,10,7.05,10,6.5v-3
	C10,1.78,8.44,0.99,7,0.99z"/>
</svg>
