<?xml version="1.0" encoding="utf-8"?>
<!-- Generator: Adobe Illustrator 23.0.2, SVG Export Plug-In . SVG Version: 6.00 Build 0)  -->
<svg version="1.1" id="Layer_1" xmlns="http://www.w3.org/2000/svg" xmlns:xlink="http://www.w3.org/1999/xlink" x="0px" y="0px"
	 viewBox="0 0 88.13 88.13" style="enable-background:new 0 0 88.13 88.13;" xml:space="preserve">
<style type="text/css">
	.st0{fill:#4476F8;}
	.st1{fill:#8089A0;}
</style>
<g>
	<path class="st0" d="M44.06,88.13c-10.52,0-20.71-3.78-28.69-10.64c-0.23-0.2-0.37-0.5-0.37-0.81V65.77c0-2.08,1.25-3.93,3.18-4.7
		L35,54.34v-4.81c-2.03-1.89-4-4.4-4-8.47v-10c0-3.56,1.41-6.89,3.97-9.38c2.56-2.48,5.92-3.78,9.5-3.68
		c6.98,0.21,12.66,6.29,12.66,13.56v9.5c0,4.07-1.97,6.58-4,8.47v4.81l16.82,6.73c1.93,0.77,3.18,2.62,3.18,4.7v10.91
		c0,0.31-0.14,0.6-0.37,0.81C64.77,84.35,54.58,88.13,44.06,88.13z M17.13,76.19C24.67,82.52,34.21,86,44.06,86
		S63.46,82.52,71,76.19V65.77c0-1.21-0.72-2.28-1.85-2.73l-17.49-6.99C51.26,55.89,51,55.5,51,55.06v-6c0-0.3,0.13-0.59,0.35-0.79
		c2.19-1.96,3.65-3.94,3.65-7.21v-9.5c0-6.13-4.75-11.26-10.6-11.44c-2.98-0.09-5.81,1.01-7.95,3.08c-2.14,2.08-3.32,4.87-3.32,7.85
		v10c0,3.27,1.46,5.25,3.65,7.21c0.22,0.2,0.35,0.49,0.35,0.79v6c0,0.43-0.26,0.83-0.67,0.99l-17.49,6.99
		c-1.12,0.45-1.85,1.52-1.85,2.73V76.19z M72.06,76.68L72.06,76.68L72.06,76.68z"/>
	<path class="st1" d="M77.06,72.69c-0.24,0-0.48-0.08-0.68-0.25c-0.45-0.38-0.51-1.05-0.13-1.5C82.54,63.42,86,53.87,86,44.06
		C86,20.94,67.19,2.13,44.06,2.13S2.13,20.94,2.13,44.06c0,9.81,3.46,19.36,9.75,26.88c0.38,0.45,0.32,1.12-0.13,1.5
		c-0.45,0.38-1.12,0.32-1.5-0.13C3.64,64.4,0,54.37,0,44.06C0,19.77,19.77,0,44.06,0c24.3,0,44.06,19.77,44.06,44.06
		c0,10.31-3.64,20.34-10.25,28.24C77.67,72.56,77.37,72.69,77.06,72.69z"/>
</g>
</svg>
