<?xml version="1.0" encoding="utf-8"?>
<!-- Generator: Adobe Illustrator 23.0.2, SVG Export Plug-In . SVG Version: 6.00 Build 0)  -->
<svg version="1.1" id="Layer_1" xmlns="http://www.w3.org/2000/svg" xmlns:xlink="http://www.w3.org/1999/xlink" x="0px" y="0px"
	 viewBox="0 0 13.99 15.99" style="enable-background:new 0 0 13.99 15.99;" xml:space="preserve">
<style type="text/css">
	.st0{fill:#939598;}
</style>
<path class="st0" d="M13.5,7h-0.51l-0.01-1.44c0-2.63-2.14-5.56-5-5.56H5.99C3.13,0,1,2.94,1,5.57L1,7H0.5C0.22,7,0,7.22,0,7.5v8
	c0,0.27,0.22,0.5,0.5,0.5h13c0.27,0,0.5-0.22,0.5-0.5v-8C13.99,7.22,13.77,7,13.5,7z M5.99,0.99h1.99c2.25,0,4,2.46,4,4.58L12,7h-10
	l0-1.44C1.99,3.45,3.74,0.99,5.99,0.99z M13,15H0.99V7.99H13V15z M7,12.99c0.27,0,0.5-0.22,0.5-0.5v-2c0-0.27-0.22-0.5-0.5-0.5
	s-0.5,0.22-0.5,0.5v2C6.5,12.77,6.72,12.99,7,12.99z"/>
</svg>
