<?xml version="1.0" encoding="utf-8"?>
<!-- Generator: Adobe Illustrator 23.0.2, SVG Export Plug-In . SVG Version: 6.00 Build 0)  -->
<svg version="1.1" id="Layer_1" xmlns="http://www.w3.org/2000/svg" xmlns:xlink="http://www.w3.org/1999/xlink" x="0px" y="0px"
	 viewBox="0 0 286.28 36.43" style="enable-background:new 0 0 286.28 36.43;" xml:space="preserve">
<style type="text/css">
	.st0{fill:#E2E8EE;}
</style>
<g>
	<path class="st0" d="M44.27,0L36.7,15.56L30.01,1.7c0,0-5.26,7.16-5.88,8C24.7,10.77,35.16,33,36.83,36.12
		C38.45,32.92,56.16,0,56.16,0H44.27z"/>
	<path class="st0" d="M130.65,2.75c-1.64-0.98-3.57-1.69-5.75-2.11C122.68,0.22,119.72,0,116.08,0c0,0-16.14,0-18.05,0v7.15
		c1.89,0,16.53,0,16.53,0c2.53,0,4.32,0.24,5.48,0.72c1.41,0.58,2.19,1.68,2.19,3.08c0,0.94-0.38,2.24-2.16,3.14
		c-1.05,0.5-2.83,0.73-5.64,0.73c0,0-14.51,0-16.41,0v12.6c0.17,0.38,3.63,7.95,4.12,9.02h9.15c0-1.84,0-14.47,0-14.47h6.02
		c4.15,0,7.54-0.41,10.09-1.22c2.48-0.79,4.56-2.11,6.21-3.92c1.67-1.81,2.48-3.7,2.48-5.78c0-1.54-0.46-3.01-1.41-4.5
		C133.72,5.05,132.36,3.77,130.65,2.75z M170.5,2.75c-1.64-0.98-3.58-1.69-5.75-2.11C162.53,0.22,159.57,0,155.93,0
		c0,0-16.14,0-18.05,0v0.94c0.72,0.77,1.38,1.53,1.9,2.34c0.77,1.21,1.32,2.51,1.72,3.86c1.38,0,12.9,0,12.9,0
		c2.52,0,4.32,0.24,5.49,0.72c1.41,0.58,2.2,1.67,2.2,3.08c0,0.94-0.38,2.24-2.16,3.14c-1.04,0.5-2.83,0.73-5.64,0.73
		c0,0-11.45,0-12.77,0c-0.63,2.18-1.72,4.24-3.42,6.1c0,0.01-0.12,0.11-0.22,0.21v15.31h13.27c0-1.84,0-14.47,0-14.47h6.02
		c4.16,0,7.55-0.41,10.1-1.22c2.48-0.79,4.57-2.11,6.21-3.92c1.67-1.82,2.48-3.7,2.48-5.78c0-1.54-0.46-3.01-1.42-4.5
		C173.57,5.05,172.21,3.77,170.5,2.75z M63.52,0c-0.54,1.13-16.25,33.64-17.61,36.43h12.95c0.52-1.24,11.13-26.1,11.13-26.1
		l9.88,18.95c0,0-11.24,0-12.49,0c-0.39,0.94-2.18,5.23-2.98,7.15h31.09C94.23,33.67,79.39,1.16,78.86,0H63.52z M280.37,14.3
		c-1.35-1.2-3.9-3.25-7.55-6.11c-1.89-1.48-3.18-2.66-3.93-3.6c-0.86-1.06-1.29-2.14-1.29-3.22c0-0.4,0.05-0.87,0.14-1.38h-13.67
		c-0.21,1.02-0.35,1.91-0.35,2.53c0,1.05,0.39,2.23,1.17,3.52c0.89,1.5,3.23,3.74,6.94,6.65c4.53,3.57,7.42,5.99,8.59,7.2
		c1.32,1.36,1.99,2.76,1.99,4.17c0,1.26-0.64,2.43-1.92,3.46c-1.45,1.17-3.7,1.74-6.87,1.74h-38.28v-7.32c0,0,20.53,0,22.48,0v-7.16
		h-35.75c0,1.84,0,14.47,0,14.47h-20.73c0,0,0-27.29,0-29.28h-13.27v1.31c0.4,0.51,1.56,1.97,1.56,1.97
		c1.58,2.46,2.37,5.07,2.37,7.77c0,3.54-1.33,6.8-3.93,9.69v15.69c2.09,0,87.32,0,87.32,0c8.88,0,15.08-2.03,18.42-6.03
		c1.66-1.99,2.46-4.04,2.46-6.26c0-2.13-0.9-4.32-2.67-6.51C282.79,16.58,281.7,15.47,280.37,14.3z M247.82,0h-35.75v7.15h35.75V0z"
		/>
	<path class="st0" d="M0,0c1.49,2.79,17.92,33.48,19.34,36.12c1.44-1.96,5.86-7.93,6.48-8.77C25.25,26.25,12.46,1.1,11.89,0H0z"/>
</g>
</svg>
